<?xml version="1.0" standalone="no"?>
<!DOCTYPE svg PUBLIC "-//W3C//DTD SVG 20010904//EN"
 "http://www.w3.org/TR/2001/REC-SVG-20010904/DTD/svg10.dtd">
<svg version="1.0" xmlns="http://www.w3.org/2000/svg"
 width="200.000000pt" height="200.000000pt" viewBox="0 0 200.000000 200.000000"
 preserveAspectRatio="xMidYMid meet">
<metadata>
Created by potrace 1.11, written by Peter Selinger 2001-2013
</metadata>
<g transform="translate(0.000000,200.000000) scale(0.100000,-0.100000)"
fill="#000000" stroke="none">
<path d="M1774 1695 c-1 -5 -14 -56 -28 -112 -58 -230 -189 -495 -351 -709
-19 -25 -46 -88 -69 -158 -21 -64 -41 -116 -46 -116 -4 0 -13 23 -20 50 -13
55 -27 62 -56 28 -10 -11 -60 -52 -111 -90 -51 -38 -90 -74 -88 -81 35 -114
69 -214 76 -222 5 -6 82 -10 201 -10 l193 0 67 200 c153 461 398 1211 398
1221 0 14 -161 13 -166 -1z"/>
<path d="M630 1687 c0 -5 20 -72 44 -150 25 -78 70 -223 100 -322 31 -99 60
-190 66 -202 8 -20 2 -32 -49 -90 -183 -212 -466 -430 -627 -483 -54 -18 -34
-22 27 -6 188 49 396 138 542 232 167 107 321 269 376 395 l19 44 -68 225
c-37 124 -77 257 -89 295 l-20 70 -161 0 c-88 0 -160 -3 -160 -8z"/>
<path d="M1436 1692 c-2 -4 -7 -25 -10 -47 -35 -220 -158 -497 -310 -693 -232
-300 -505 -488 -921 -634 -72 -25 -96 -36 -70 -33 269 32 458 86 670 191 386
191 658 500 813 924 43 116 82 283 69 292 -5 3 -61 6 -123 6 -63 0 -116 -3
-118 -6z"/>
</g>
</svg>
