<?xml version="1.0" standalone="no"?>
<!DOCTYPE svg PUBLIC "-//W3C//DTD SVG 20010904//EN"
 "http://www.w3.org/TR/2001/REC-SVG-20010904/DTD/svg10.dtd">
<svg version="1.0" xmlns="http://www.w3.org/2000/svg"
 width="156.000000pt" height="156.000000pt" viewBox="0 0 156.000000 156.000000"
 preserveAspectRatio="xMidYMid meet">
<metadata>
Created by potrace 1.11, written by Peter Selinger 2001-2013
</metadata>
<g transform="translate(0.000000,156.000000) scale(0.100000,-0.100000)"
fill="#000000" stroke="none">
<path d="M1246 1337 c-130 -376 -391 -589 -736 -602 -52 -2 -116 0 -143 4 -26
4 -47 6 -47 4 0 -2 34 -20 75 -39 253 -117 556 -97 779 51 64 43 157 129 205
192 81 107 156 317 149 421 l-3 46 -125 2 -125 2 -29 -81z"/>
<path d="M340 1403 c0 -5 64 -209 130 -416 9 -27 7 -29 -53 -57 -88 -42 -207
-70 -301 -72 l-81 -1 40 -18 c127 -56 341 -64 491 -20 80 24 184 69 207 90 4
4 3 20 -2 37 -5 16 -22 70 -36 119 -15 50 -30 101 -35 115 -5 14 -23 71 -40
128 l-31 102 -144 0 c-80 0 -145 -3 -145 -7z"/>
<path d="M1235 636 c-40 -22 -117 -55 -145 -62 -8 -1 -37 -9 -65 -16 l-49 -13
-22 -68 c-21 -68 -21 -68 -33 -40 -6 15 -14 42 -17 58 -3 17 -9 34 -14 38 -4
5 -42 10 -83 12 -41 2 -103 11 -137 20 -34 9 -63 15 -65 13 -2 -3 117 -380
136 -428 l10 -25 178 0 178 0 69 205 c37 113 69 207 69 210 1 3 4 12 8 20 13
35 29 92 25 95 -1 2 -21 -7 -43 -19z"/>
</g>
</svg>
